HIERARCHY
ROOT Hips
{
  OFFSET 5.72205e-005 65.662 3.42586
  CHANNELS 6 Xposition Yposition Zposition Zrotation Xrotation Yrotation
  JOINT Chest
  {
    OFFSET 0 8.7983 -4.7612
    CHANNELS 3 Zrotation Xrotation Yrotation
    JOINT Chest2
    {
      OFFSET 0 8.0291 0.4195
      CHANNELS 3 Zrotation Xrotation Yrotation
      JOINT Chest3
      {
        OFFSET 0 9.9351 -2.2114
        CHANNELS 3 Zrotation Xrotation Yrotation
        JOINT Neck
        {
          OFFSET 0 22.3885 -0.4656
          CHANNELS 3 Zrotation Xrotation Yrotation
          JOINT Head
          {
            OFFSET -0.0001 12.643 3.4389
            CHANNELS 3 Zrotation Xrotation Yrotation
            End Site
            {
              OFFSET 0.0001 17.6655 0.5274
            }
          }
        }
        JOINT LeftCollar
        {
          OFFSET 2.2603 21.606 7.4023
          CHANNELS 3 Zrotation Xrotation Yrotation
          JOINT LeftShoulder
          {
            OFFSET 13.5163 -1.1332 -5.0146
            CHANNELS 3 Zrotation Xrotation Yrotation
            JOINT LeftElbow
            {
              OFFSET -0.0995 -28.05 -0.2431
              CHANNELS 3 Zrotation Xrotation Yrotation
              JOINT LeftWrist
              {
                OFFSET 0.0679 -23.3996 -0.1402
                CHANNELS 3 Zrotation Xrotation Yrotation
                JOINT LeftFinger1
                {
                  OFFSET 0.7932 -9.069 2.5189
                  CHANNELS 3 Zrotation Xrotation Yrotation
                  JOINT LeftFinger11
                  {
                    OFFSET -0.8272 -3.3923 0.5977
                    CHANNELS 3 Zrotation Xrotation Yrotation
                    JOINT LeftFinger12
                    {
                      OFFSET -0.5649 -2.3158 0.4082
                      CHANNELS 3 Zrotation Xrotation Yrotation
                      End Site
                      {
                        OFFSET -0.4919 -1.6479 0.2673
                      }
                    }
                  }
                }
                JOINT LeftFinger2
                {
                  OFFSET 0.9159 -9.2044 0.2193
                  CHANNELS 3 Zrotation Xrotation Yrotation
                  JOINT LeftFinger21
                  {
                    OFFSET 0.0117 -4.1944 -0.0248
                    CHANNELS 3 Zrotation Xrotation Yrotation
                    JOINT LeftFinger22
                    {
                      OFFSET 0.0071 -2.3249 -0.0142
                      CHANNELS 3 Zrotation Xrotation Yrotation
                      End Site
                      {
                        OFFSET -0.1475 -2.0882 0.0028
                      }
                    }
                  }
                }
                JOINT LeftFinger3
                {
                  OFFSET 0.6113 -8.7231 -2.0637
                  CHANNELS 3 Zrotation Xrotation Yrotation
                  JOINT LeftFinger31
                  {
                    OFFSET -0.1927 -3.8059 -0.2383
                    CHANNELS 3 Zrotation Xrotation Yrotation
                    JOINT LeftFinger32
                    {
                      OFFSET -0.1091 -2.1688 -0.1362
                      CHANNELS 3 Zrotation Xrotation Yrotation
                      End Site
                      {
                        OFFSET -0.2358 -1.9176 -0.0906
                      }
                    }
                  }
                }
                JOINT LeftFinger4
                {
                  OFFSET -0.6151 -8.0947 -3.5641
                  CHANNELS 3 Zrotation Xrotation Yrotation
                  JOINT LeftFinger41
                  {
                    OFFSET -0.4882 -2.341 -0.6462
                    CHANNELS 3 Zrotation Xrotation Yrotation
                    JOINT LeftFinger42
                    {
                      OFFSET -0.3575 -1.7167 -0.4742
                      CHANNELS 3 Zrotation Xrotation Yrotation
                      End Site
                      {
                        OFFSET -0.4187 -1.5237 -0.3496
                      }
                    }
                  }
                }
                JOINT LeftFinger0
                {
                  OFFSET -1.42 -1.8761 1.4223
                  CHANNELS 3 Zrotation Xrotation Yrotation
                  JOINT LeftFinger01
                  {
                    OFFSET -1.1471 -3.4929 2.6334
                    CHANNELS 3 Zrotation Xrotation Yrotation
                    JOINT LeftFinger02
                    {
                      OFFSET -0.823 -2.3 1.6571
                      CHANNELS 3 Zrotation Xrotation Yrotation
                      End Site
                      {
                        OFFSET -0.5822 -1.6914 1.1582
                      }
                    }
                  }
                }
              }
            }
          }
        }
        JOINT RightCollar
        {
          OFFSET -2.2603 21.606 7.4023
          CHANNELS 3 Zrotation Xrotation Yrotation
          JOINT RightShoulder
          {
            OFFSET -13.5187 -1.1334 -5.0155
            CHANNELS 3 Zrotation Xrotation Yrotation
            JOINT RightElbow
            {
              OFFSET 0.0994 -28.0499 -0.2431
              CHANNELS 3 Zrotation Xrotation Yrotation
              JOINT RightWrist
              {
                OFFSET -0.0679 -23.3996 -0.1402
                CHANNELS 3 Zrotation Xrotation Yrotation
                JOINT RightFinger1
                {
                  OFFSET -0.7932 -9.0691 2.5189
                  CHANNELS 3 Zrotation Xrotation Yrotation
                  JOINT RightFinger11
                  {
                    OFFSET 0.8272 -3.3923 0.5977
                    CHANNELS 3 Zrotation Xrotation Yrotation
                    JOINT RightFinger12
                    {
                      OFFSET 0.565 -2.3158 0.4082
                      CHANNELS 3 Zrotation Xrotation Yrotation
                      End Site
                      {
                        OFFSET 0.4919 -1.6479 0.2673
                      }
                    }
                  }
                }
                JOINT RightFinger2
                {
                  OFFSET -0.916 -9.2044 0.2193
                  CHANNELS 3 Zrotation Xrotation Yrotation
                  JOINT RightFinger21
                  {
                    OFFSET -0.0117 -4.1944 -0.0248
                    CHANNELS 3 Zrotation Xrotation Yrotation
                    JOINT RightFinger22
                    {
                      OFFSET -0.0071 -2.3249 -0.0142
                      CHANNELS 3 Zrotation Xrotation Yrotation
                      End Site
                      {
                        OFFSET 0.1475 -2.0882 0.0028
                      }
                    }
                  }
                }
                JOINT RightFinger3
                {
                  OFFSET -0.6113 -8.7231 -2.0637
                  CHANNELS 3 Zrotation Xrotation Yrotation
                  JOINT RightFinger31
                  {
                    OFFSET 0.1927 -3.8059 -0.2383
                    CHANNELS 3 Zrotation Xrotation Yrotation
                    JOINT RightFinger32
                    {
                      OFFSET 0.1091 -2.1688 -0.1362
                      CHANNELS 3 Zrotation Xrotation Yrotation
                      End Site
                      {
                        OFFSET 0.2358 -1.9176 -0.0906
                      }
                    }
                  }
                }
                JOINT RightFinger4
                {
                  OFFSET 0.6151 -8.0947 -3.564
                  CHANNELS 3 Zrotation Xrotation Yrotation
                  JOINT RightFinger41
                  {
                    OFFSET 0.4882 -2.341 -0.6462
                    CHANNELS 3 Zrotation Xrotation Yrotation
                    JOINT RightFinger42
                    {
                      OFFSET 0.3574 -1.7166 -0.4742
                      CHANNELS 3 Zrotation Xrotation Yrotation
                      End Site
                      {
                        OFFSET 0.4187 -1.5237 -0.3496
                      }
                    }
                  }
                }
                JOINT RightFinger0
                {
                  OFFSET 1.4199 -1.8761 1.4221
                  CHANNELS 3 Zrotation Xrotation Yrotation
                  JOINT RightFinger01
                  {
                    OFFSET 1.1472 -3.4929 2.6336
                    CHANNELS 3 Zrotation Xrotation Yrotation
                    JOINT RightFinger02
                    {
                      OFFSET 0.8229 -2.3 1.6571
                      CHANNELS 3 Zrotation Xrotation Yrotation
                      End Site
                      {
                        OFFSET 0.5822 -1.6914 1.1582
                      }
                    }
                  }
                }
              }
            }
          }
        }
      }
    }
  }
  JOINT RightHip
  {
    OFFSET -9.412 3.9771 -0.7758
    CHANNELS 3 Zrotation Xrotation Yrotation
    JOINT RightKnee
    {
      OFFSET -0.7531 -40.938 0
      CHANNELS 3 Zrotation Xrotation Yrotation
      JOINT RightAnkle
      {
        OFFSET 0 -40.1986 0
        CHANNELS 3 Zrotation Xrotation Yrotation
        JOINT RightToe
        {
          OFFSET 0 -4.4182 9.239
          CHANNELS 3 Zrotation Xrotation Yrotation
          End Site
          {
            OFFSET 0 0 6.1981
          }
        }
      }
    }
  }
  JOINT LeftHip
  {
    OFFSET 9.4119 3.9773 -0.7758
    CHANNELS 3 Zrotation Xrotation Yrotation
    JOINT LeftKnee
    {
      OFFSET 0.7532 -40.9383 0
      CHANNELS 3 Zrotation Xrotation Yrotation
      JOINT LeftAnkle
      {
        OFFSET 0 -40.1986 0
        CHANNELS 3 Zrotation Xrotation Yrotation
        JOINT LeftToe
        {
          OFFSET 0 -4.4182 9.239
          CHANNELS 3 Zrotation Xrotation Yrotation
          End Site
          {
            OFFSET 0 0 6.1981
          }
        }
      }
    }
  }
}
MOTION
Frames:	4
Frame Time:	0.0333333
5.72205e-005 65.662 3.42586 0 0 -0 0 0 -0 0 0 -0 0 0 -0 0 0 -0 0 0 -0 0 0 -12.5014 88.1196 14.2451 10.6914 -0.00160068 -0.00239207 0.000740045 -8.4365e-005 7.00714e-005 -9.52055e-007 9.93923e-017 -1.98785e-016 -1.59028e-015 9.93923e-017 -5.96354e-016 -1.59028e-015 -9.93923e-017 -5.96354e-016 -1.59028e-015 9.93923e-017 -1.98785e-016 -1.59028e-015 -0.0128176 0.00232552 8.52707e-005 9.93923e-017 5.96354e-016 -0 9.93923e-017 -1.98785e-016 -1.59028e-015 -0.0160551 0.00299681 0.000857156 -2.48481e-016 0 3.18055e-015 9.93923e-017 -1.98785e-016 -1.59028e-015 -0.0125865 0.0031206 0.00282719 0 1.98785e-016 -0 9.93923e-017 -1.98785e-016 -1.59028e-015 9.93923e-017 -5.96354e-016 -1.59028e-015 -9.93923e-017 -5.96354e-016 -1.59028e-015 -0.865644 0.16582 7.03859 -88.0329 10.2057 -10.5567 0.0015593 -0.00248883 -0.000788628 7.87605e-005 4.10553e-005 1.24965e-005 -3.97569e-016 -7.95139e-016 3.18055e-015 -1.98785e-016 -3.97569e-016 3.18055e-015 -1.98785e-016 0 3.18055e-015 -3.97569e-016 -7.95139e-016 3.18055e-015 0.0129473 0.00231697 -8.70038e-005 9.93923e-017 -7.95139e-016 1.59028e-015 -3.97569e-016 -7.95139e-016 3.18055e-015 0.0163314 0.00303369 -0.000872333 3.97569e-016 7.95139e-016 -3.18055e-015 -3.97569e-016 -7.95139e-016 3.18055e-015 0.0145763 0.00367772 -0.00326275 9.93923e-017 -3.97569e-016 -0 -3.97569e-016 -7.95139e-016 3.18055e-015 -1.98785e-016 -3.97569e-016 3.18055e-015 -1.98785e-016 0 3.18055e-015 3.42482 1.32465 -0.0626183 0.000117508 0.717283 0.000978199 -3.4257 -2.04197 -0.0604716 6.47761e-025 0 -0 -3.42483 1.34017 0.0627307 -0.000193936 0.682302 -0.0013703 3.42574 -2.02253 0.0595886 -8.45714e-024 0 -7.40531e-025 
2.80175 1.67024 9.96967 0.645984 -48.0242 -1.50211 0.547102 6.40451 -0.731047 1.18823 12.8011 -1.5386 1.18824 12.8012 -1.53861 1.28245 38.2485 0.897138 -11.6411 12.6428 6.12098 11.0025 6.99051 -12.5014 -10.3178 31.0604 -9.81987 2.09161 -4.55453 52.8668 61.5004 -26.1585 6.21686 -4.96962e-016 0 3.97569e-016 -1.88845e-015 1.59028e-015 7.95139e-016 2.73329e-015 2.38542e-015 7.95139e-016 -4.96962e-016 0 3.97569e-016 -0.0128147 0.0023236 8.57833e-005 5.96354e-015 0 3.97569e-016 -4.96962e-016 0 3.97569e-016 -0.0160765 0.00300004 0.00085638 2.48481e-016 3.97569e-015 -0 -4.96962e-016 0 3.97569e-016 -0.0125984 0.00312247 0.00282522 -1.2921e-014 0 -1.59028e-015 -4.96962e-016 0 3.97569e-016 -1.88845e-015 1.59028e-015 7.95139e-016 2.73329e-015 2.38542e-015 7.95139e-016 -11.8783 7.15592 7.14154 6.25985 32.5467 17.1246 -0.695032 -4.25324 -52.8668 -61.996 -25.2844 -7.8124 2.948e-007 -5.19967e-009 -1.24314e-006 -1.96533e-007 1.73322e-009 8.28757e-007 4.91333e-007 -1.63005e-006 -2.07189e-006 2.948e-007 -5.19967e-009 -1.24314e-006 0.0129581 0.00231281 -8.23488e-005 1.96553e-007 4.42083e-008 -8.28749e-007 2.948e-007 -5.19967e-009 -1.24314e-006 0.0163563 0.00303371 -0.000869318 2.5842e-015 -3.46781e-009 -7.95139e-016 2.948e-007 -5.19967e-009 -1.24314e-006 0.0145847 0.00367957 -0.00325986 9.93923e-016 1.59028e-015 -0 2.948e-007 -5.19967e-009 -1.24314e-006 -1.96533e-007 1.73322e-009 8.28757e-007 4.91333e-007 -1.63005e-006 -2.07189e-006 -65.8852 -67.5556 -42.6303 -158.594 70.0986 157.357 23.9085 16.3861 0.183153 -8.30657e-007 -4.30314e-007 1.21391e-008 38.4359 -33.2714 32.1351 10.1285 19.0157 26.7246 -25.4154 27.1556 -1.62295 -3.18055e-015 0 -7.95139e-016 
2.79921 1.67135 9.97036 0.645984 -48.0242 -1.50211 0.547102 6.40451 -0.731047 1.18823 12.8011 -1.5386 1.18824 12.8012 -1.53861 1.22991 38.0099 1.18769 -11.6229 12.3833 6.05814 11.0025 6.99051 -12.5014 -10.3178 31.0604 -9.81987 2.09161 -4.55453 52.8668 61.5004 -26.1585 6.21686 -4.96962e-016 0 3.97569e-016 -1.88845e-015 1.59028e-015 7.95139e-016 2.73329e-015 2.38542e-015 7.95139e-016 -4.96962e-016 0 3.97569e-016 -0.0128147 0.0023236 8.57833e-005 5.96354e-015 0 3.97569e-016 -4.96962e-016 0 3.97569e-016 -0.0160434 0.00299787 0.000857255 4.22417e-015 -1.59028e-015 -7.95139e-016 -4.96962e-016 0 3.97569e-016 -0.0125984 0.00312247 0.00282522 -1.2921e-014 0 -1.59028e-015 -4.96962e-016 0 3.97569e-016 -1.88845e-015 1.59028e-015 7.95139e-016 2.73329e-015 2.38542e-015 7.95139e-016 -11.8783 7.15592 7.14154 6.25989 32.5467 17.1246 -0.695031 -4.25326 -52.8668 -61.9959 -25.2845 -7.81236 -6.16232e-015 0 -0 9.82665e-008 -3.4664e-009 -4.14378e-007 9.82665e-008 -8.36255e-007 -4.14378e-007 -6.16232e-015 0 -0 0.0129432 0.00231749 -8.7074e-005 1.96553e-007 -1.67252e-006 -8.28749e-007 -6.16232e-015 0 -0 0.0163114 0.00302977 -0.00087373 -3.9312e-007 -1.52721e-006 1.65749e-006 -6.16232e-015 0 -0 0.0145767 0.00368237 -0.00326626 -3.29301e-007 -2.3947e-006 -3.47636e-007 -6.16232e-015 0 -0 9.82665e-008 -3.4664e-009 -4.14378e-007 9.82665e-008 -8.36255e-007 -4.14378e-007 -67.6438 -67.1873 -44.6742 -158.578 70.1107 157.34 23.9161 16.4226 0.173585 -5.56597e-015 1.10867e-009 -0 38.4353 -33.2671 32.1349 10.1281 19.0088 26.7256 -25.4158 27.159 -1.62221 -4.60365e-006 4.41517e-006 6.84877e-006 
2.79666 1.67241 9.97102 0.645982 -48.0242 -1.50211 0.5471 6.40451 -0.731047 1.18823 12.8011 -1.5386 1.18824 12.8012 -1.53861 1.17904 37.7709 1.47721 -11.6051 12.1238 5.99542 11.0025 6.99051 -12.5014 -10.3177 31.0604 -9.81989 2.09158 -4.55454 52.8667 61.5003 -26.1585 6.21685 -5.96354e-016 -1.59028e-015 -0 -4.96962e-016 -2.38542e-015 3.97569e-016 -4.47266e-016 -7.95139e-016 3.97569e-016 -5.96354e-016 -1.59028e-015 -0 -0.012824 0.00232387 8.34787e-005 -4.47266e-016 1.59028e-015 7.95139e-016 -5.96354e-016 -1.59028e-015 -0 -0.0160606 0.00299749 0.000858609 1.54058e-015 1.59028e-015 7.95139e-016 -5.96354e-016 -1.59028e-015 -0 -0.0125774 0.00312319 0.0028269 -1.98785e-016 0 -3.97569e-016 -5.96354e-016 -1.59028e-015 -0 -4.96962e-016 -2.38542e-015 3.97569e-016 -4.47266e-016 -7.95139e-016 3.97569e-016 -11.8783 7.15592 7.14154 6.25991 32.5467 17.1246 -0.695067 -4.25326 -52.8668 -61.996 -25.2845 -7.81237 -2.83211e-006 -7.20145e-007 -2.08226e-007 1.96533e-007 -9.53289e-008 -8.28757e-007 -3.55017e-006 -7.61719e-007 -5.99649e-007 -2.83211e-006 -7.20145e-007 -2.08226e-007 0.0129491 0.00231591 -8.92261e-005 5.06655e-006 6.99915e-007 1.16071e-006 -2.83211e-006 -7.20145e-007 -2.08226e-007 0.0163466 0.00303527 -0.000871703 -1.2994e-005 -6.15287e-007 -2.37835e-006 -2.83211e-006 -7.20145e-007 -2.08226e-007 0.0145571 0.00367282 -0.00325264 4.96962e-015 -3.34503e-006 7.95139e-016 -2.83211e-006 -7.20145e-007 -2.08226e-007 1.96533e-007 -9.53289e-008 -8.28757e-007 -3.55017e-006 -7.61719e-007 -5.99649e-007 -69.3443 -66.7945 -46.6611 -158.563 70.1232 157.323 23.9236 16.4592 0.163939 1.64991e-006 -4.71843e-008 -3.78873e-008 38.4347 -33.2626 32.1346 10.1276 19.0014 26.7267 -25.4161 27.1628 -1.62146 -1.53455e-006 2.27022e-006 2.28292e-006 
